<svg width="24" height="24" viewBox="0 0 24 24" fill="none" xmlns="http://www.w3.org/2000/svg">
<path d="M2.05715 10.04C2.56715 10.55 3.37716 10.6 3.92716 10.14C8.59716 6.3 15.3772 6.3 20.0572 10.13C20.6172 10.59 21.4372 10.55 21.9472 10.04C22.5372 9.45 22.4972 8.47 21.8472 7.94C16.1372 3.27 7.87715 3.27 2.15715 7.94C1.50716 8.46 1.45715 9.44 2.05715 10.04ZM9.81715 17.8L11.2872 19.27C11.6772 19.66 12.3072 19.66 12.6972 19.27L14.1672 17.8C14.6372 17.33 14.5372 16.52 13.9372 16.21C12.7172 15.58 11.2572 15.58 10.0272 16.21C9.45715 16.52 9.34716 17.33 9.81715 17.8ZM6.08715 14.07C6.57716 14.56 7.34715 14.61 7.91715 14.2C10.3572 12.47 13.6372 12.47 16.0772 14.2C16.6472 14.6 17.4172 14.56 17.9072 14.07L17.9172 14.06C18.5172 13.46 18.4772 12.44 17.7872 11.95C14.3472 9.46 9.65716 9.46 6.20715 11.95C5.51715 12.45 5.47715 13.46 6.08715 14.07Z" fill="black"/>
</svg>
